<?xml version="1.0" encoding="UTF-8"?>
<!DOCTYPE svg PUBLIC "-//W3C//DTD SVG 1.1//EN" "http://www.w3.org/Graphics/SVG/1.1/DTD/svg11.dtd">
<svg xmlns="http://www.w3.org/2000/svg" version="1.1" width="512px" height="80px" style="shape-rendering:geometricPrecision; text-rendering:geometricPrecision; image-rendering:optimizeQuality; fill-rule:evenodd; clip-rule:evenodd" xmlns:xlink="http://www.w3.org/1999/xlink">
<g><path style="opacity:0.135" fill="#c9cccf" d="M 159.5,24.5 C 153.799,23.711 148.132,22.711 142.5,21.5C 127.817,21.3386 113.151,21.6719 98.5,22.5C 102.944,21.1873 107.611,20.354 112.5,20C 122.833,19.3333 133.167,19.3333 143.5,20C 149.113,20.9466 154.446,22.4466 159.5,24.5 Z"/></g>
<g><path style="opacity:0.153" fill="#dedfe0" d="M 38.5,21.5 C 38.5569,22.609 38.8902,23.609 39.5,24.5C 37.4482,23.9473 37.1148,22.9473 38.5,21.5 Z"/></g>
<g><path style="opacity:0.21" fill="#d0d3d5" d="M 141.5,22.5 C 142.833,23.1667 144.167,23.8333 145.5,24.5C 142.342,25.9625 139.009,27.1292 135.5,28C 137.192,29.3073 138.525,30.8073 139.5,32.5C 137.564,31.741 135.731,30.741 134,29.5C 133.235,29.5699 132.735,29.9033 132.5,30.5C 130.448,29.2898 128.282,28.2898 126,27.5C 122.849,28.0931 119.682,28.5931 116.5,29C 117.252,29.6708 117.586,30.5041 117.5,31.5C 116.163,30.6851 115.163,29.5185 114.5,28C 117.036,27.8138 119.369,27.3138 121.5,26.5C 124.833,26.5 128.167,26.5 131.5,26.5C 134.32,26.7525 136.986,26.2525 139.5,25C 129.325,24.8302 119.325,24.3302 109.5,23.5C 120.128,22.5704 130.795,22.237 141.5,22.5 Z"/></g>
<g><path style="opacity:0.711" fill="#879196" d="M 105.5,24.5 C 106.568,23.5655 107.901,23.2322 109.5,23.5C 119.325,24.3302 129.325,24.8302 139.5,25C 136.986,26.2525 134.32,26.7525 131.5,26.5C 123.684,25.5076 115.684,25.1743 107.5,25.5C 107.158,24.6618 106.492,24.3284 105.5,24.5 Z"/></g>
<g><path style="opacity:0.973" fill="#9fa6aa" d="M 142.5,21.5 C 148.132,22.711 153.799,23.711 159.5,24.5C 160.492,24.3284 161.158,24.6618 161.5,25.5C 162.167,26.1667 162.833,26.8333 163.5,27.5C 161.302,27.4088 160.969,28.0755 162.5,29.5C 161.761,29.369 161.094,29.5357 160.5,30C 162.464,31.451 163.797,33.2843 164.5,35.5C 162.704,34.2073 161.037,32.7073 159.5,31C 158.251,30.2599 157.251,30.4265 156.5,31.5C 153.101,28.7719 149.434,26.4385 145.5,24.5C 144.167,23.8333 142.833,23.1667 141.5,22.5C 142.167,22.5 142.5,22.1667 142.5,21.5 Z"/></g>
<g><path style="opacity:1" fill="#292929" d="M 411.5,24.5 C 418.865,24.6532 420.865,27.8199 417.5,34C 410.877,36.6162 407.71,34.4496 408,27.5C 409.145,26.3636 410.312,25.3636 411.5,24.5 Z"/></g>
<g><path style="opacity:0.125" fill="#cacdcf" d="M 105.5,24.5 C 106.492,24.3284 107.158,24.6618 107.5,25.5C 107.821,27.0481 108.821,27.7148 110.5,27.5C 110.5,27.8333 110.5,28.1667 110.5,28.5C 109.167,28.5 107.833,28.5 106.5,28.5C 106.5,27.5 106.5,26.5 106.5,25.5C 97.2791,27.0551 88.2791,29.3884 79.5,32.5C 81.9647,30.1633 84.9647,28.6633 88.5,28C 94.0404,26.188 99.7071,25.0213 105.5,24.5 Z"/></g>
<g><path style="opacity:1" fill="#233640" d="M 107.5,25.5 C 115.684,25.1743 123.684,25.5076 131.5,26.5C 128.167,26.5 124.833,26.5 121.5,26.5C 117.785,26.423 114.119,26.7564 110.5,27.5C 108.821,27.7148 107.821,27.0481 107.5,25.5 Z"/></g>
<g><path style="opacity:1" fill="#3d4e57" d="M 38.5,21.5 C 45.0839,24.1979 51.9173,26.5312 59,28.5C 61.5028,28.01 63.5028,26.6766 65,24.5C 64.5343,27.0997 63.0343,29.2664 60.5,31C 59.552,31.4828 58.552,31.6495 57.5,31.5C 55.8984,29.9261 53.8984,29.2594 51.5,29.5C 48.61,27.267 45.2767,25.9337 41.5,25.5C 40.5084,25.6716 39.8417,25.3382 39.5,24.5C 38.8902,23.609 38.5569,22.609 38.5,21.5 Z M 52.5,25.5 C 55.6399,24.3592 58.9733,24.1925 62.5,25C 61.6008,26.2362 60.4341,27.0696 59,27.5C 56.8458,26.7259 54.6792,26.0592 52.5,25.5 Z"/></g>
<g><path style="opacity:1" fill="#2e3f49" d="M 142.5,21.5 C 142.5,22.1667 142.167,22.5 141.5,22.5C 130.795,22.237 120.128,22.5704 109.5,23.5C 107.901,23.2322 106.568,23.5655 105.5,24.5C 99.7071,25.0213 94.0404,26.188 88.5,28C 84.9647,28.6633 81.9647,30.1633 79.5,32.5C 75.191,32.8222 71.5244,34.4889 68.5,37.5C 84.1525,38.4994 99.8192,38.8327 115.5,38.5C 115.5,36.8333 115.5,35.1667 115.5,33.5C 116.167,33.5 116.833,33.5 117.5,33.5C 118.15,35.4352 118.483,37.4352 118.5,39.5C 118.5,39.8333 118.5,40.1667 118.5,40.5C 99.8333,40.5 81.1667,40.5 62.5,40.5C 62.2965,38.6096 62.9632,37.1096 64.5,36C 75.5074,30.3926 86.8408,25.8926 98.5,22.5C 113.151,21.6719 127.817,21.3386 142.5,21.5 Z"/></g>
<g><path style="opacity:0.804" fill="#788389" d="M 121.5,26.5 C 119.369,27.3138 117.036,27.8138 114.5,28C 115.163,29.5185 116.163,30.6851 117.5,31.5C 117.5,32.1667 117.5,32.8333 117.5,33.5C 116.833,33.5 116.167,33.5 115.5,33.5C 115.167,33.5 114.833,33.5 114.5,33.5C 113.197,31.8577 111.864,30.1911 110.5,28.5C 110.5,28.1667 110.5,27.8333 110.5,27.5C 114.119,26.7564 117.785,26.423 121.5,26.5 Z"/></g>
<g><path style="opacity:1" fill="#ff2b18" d="M 303.5,63.5 C 300.223,63.7839 297.057,63.4505 294,62.5C 286.596,65.9213 280.596,64.2546 276,57.5C 273.188,49.6118 275.021,43.1118 281.5,38C 285.741,35.8878 289.741,36.0545 293.5,38.5C 293.56,39.0431 293.893,39.3764 294.5,39.5C 295.489,35.8927 295.823,32.226 295.5,28.5C 298.167,28.5 300.833,28.5 303.5,28.5C 303.5,40.1667 303.5,51.8333 303.5,63.5 Z M 288.5,44.5 C 293.824,45.3305 295.658,48.3305 294,53.5C 289.424,57.6454 286.257,56.6454 284.5,50.5C 284.866,47.7441 286.2,45.7441 288.5,44.5 Z"/></g>
<g><path style="opacity:0.535" fill="#ff8383" d="M 303.5,63.5 C 303.5,51.8333 303.5,40.1667 303.5,28.5C 300.833,28.5 298.167,28.5 295.5,28.5C 295.823,32.226 295.489,35.8927 294.5,39.5C 293.893,39.3764 293.56,39.0431 293.5,38.5C 294.482,35.0381 294.815,31.3714 294.5,27.5C 297.833,27.5 301.167,27.5 304.5,27.5C 304.828,39.6783 304.495,51.6783 303.5,63.5 Z"/></g>
<g><path style="opacity:0.39" fill="#ffa1a1" d="M 230.5,30.5 C 224.167,30.5 217.833,30.5 211.5,30.5C 211.5,41.5 211.5,52.5 211.5,63.5C 210.505,52.3456 210.172,41.0123 210.5,29.5C 217.354,29.176 224.021,29.5093 230.5,30.5 Z"/></g>
<g><path style="opacity:1" fill="#ff1e0f" d="M 230.5,30.5 C 241.023,32.8764 244.189,39.2098 240,49.5C 238.786,51.0488 237.286,52.2155 235.5,53C 237.587,56.5082 239.92,59.8416 242.5,63C 238.459,63.8265 234.459,63.6599 230.5,62.5C 229.057,59.9235 227.39,57.5901 225.5,55.5C 224.081,54.5489 222.415,54.2155 220.5,54.5C 220.5,57.5 220.5,60.5 220.5,63.5C 217.5,63.5 214.5,63.5 211.5,63.5C 211.5,52.5 211.5,41.5 211.5,30.5C 217.833,30.5 224.167,30.5 230.5,30.5 Z M 228.5,38.5 C 232.5,41.1667 232.5,43.8333 228.5,46.5C 226.167,46.5 223.833,46.5 221.5,46.5C 221.5,43.8333 221.5,41.1667 221.5,38.5C 223.833,38.5 226.167,38.5 228.5,38.5 Z"/></g>
<g><path style="opacity:0.241" fill="#b5b5b5" d="M 336.5,30.5 C 327.833,30.5 319.167,30.5 310.5,30.5C 310.5,41.5 310.5,52.5 310.5,63.5C 309.505,52.3456 309.172,41.0123 309.5,29.5C 318.682,29.1734 327.682,29.5067 336.5,30.5 Z"/></g>
<g><path style="opacity:1" fill="#010101" d="M 336.5,30.5 C 336.5,32.8333 336.5,35.1667 336.5,37.5C 331.167,37.5 325.833,37.5 320.5,37.5C 319.539,39.2646 319.205,41.2646 319.5,43.5C 324.5,43.5 329.5,43.5 334.5,43.5C 334.5,45.5 334.5,47.5 334.5,49.5C 329.5,49.5 324.5,49.5 319.5,49.5C 319.5,51.8333 319.5,54.1667 319.5,56.5C 325.167,56.5 330.833,56.5 336.5,56.5C 336.5,58.8333 336.5,61.1667 336.5,63.5C 327.833,63.5 319.167,63.5 310.5,63.5C 310.5,52.5 310.5,41.5 310.5,30.5C 319.167,30.5 327.833,30.5 336.5,30.5 Z"/></g>
<g><path style="opacity:1" fill="#4c5b63" d="M 163.5,27.5 C 169.803,30.3175 175.803,33.6508 181.5,37.5C 180.675,38.3857 179.675,38.719 178.5,38.5C 173.159,35.4965 167.825,32.4965 162.5,29.5C 160.969,28.0755 161.302,27.4088 163.5,27.5 Z"/></g>
<g><path style="opacity:0.06" fill="#cfd2d4" d="M 117.5,31.5 C 119.074,33.1016 119.741,35.1016 119.5,37.5C 124.875,37.8282 130.208,37.4948 135.5,36.5C 135.863,35.8165 136.196,35.1499 136.5,34.5C 137.799,36.1534 137.466,37.6534 135.5,39C 129.843,39.4994 124.176,39.6661 118.5,39.5C 118.483,37.4352 118.15,35.4352 117.5,33.5C 117.5,32.8333 117.5,32.1667 117.5,31.5 Z"/></g>
<g><path style="opacity:1" fill="#5b6870" d="M 164.5,35.5 C 166.114,38.3929 167.447,41.3929 168.5,44.5C 172.494,43.3909 176.494,42.0576 180.5,40.5C 181.167,40.8333 181.833,41.1667 182.5,41.5C 177.669,43.8888 172.669,45.8888 167.5,47.5C 166.094,47.0269 165.427,46.0269 165.5,44.5C 165.008,42.1815 164.008,40.1815 162.5,38.5C 160.529,36.1918 158.529,33.8585 156.5,31.5C 157.251,30.4265 158.251,30.2599 159.5,31C 161.037,32.7073 162.704,34.2073 164.5,35.5 Z"/></g>
<g><path style="opacity:1" fill="#ff331f" d="M 272.5,52.5 C 266.132,52.1703 259.798,52.5037 253.5,53.5C 253.624,54.1067 253.957,54.44 254.5,54.5C 258.064,57.0867 261.731,57.0867 265.5,54.5C 267.705,55.8707 269.372,57.704 270.5,60C 262.084,66.2687 253.917,65.7687 246,58.5C 241.58,46.3433 245.747,39.01 258.5,36.5C 268.537,37.2005 273.204,42.5338 272.5,52.5 Z M 263.5,47.5 C 260.287,47.81 257.287,47.4767 254.5,46.5C 255.312,45.0069 256.645,44.3402 258.5,44.5C 260.942,44.2858 262.608,45.2858 263.5,47.5 Z"/></g>
<g><path style="opacity:1" fill="#191919" d="M 356.5,36.5 C 362.371,35.9448 366.538,38.2782 369,43.5C 369.5,50.1583 369.666,56.825 369.5,63.5C 366.167,63.5 362.833,63.5 359.5,63.5C 359.666,57.8236 359.499,52.1569 359,46.5C 356.408,45.0183 354.075,45.3517 352,47.5C 351.501,52.8229 351.334,58.1563 351.5,63.5C 348.167,63.5 344.833,63.5 341.5,63.5C 341.5,54.8333 341.5,46.1667 341.5,37.5C 345.03,36.9889 348.196,37.6556 351,39.5C 352.876,38.3913 354.709,37.3913 356.5,36.5 Z"/></g>
<g><path style="opacity:1" fill="#1b1b1b" d="M 383.5,36.5 C 387.459,36.0713 390.959,37.0713 394,39.5C 396.804,37.6556 399.97,36.9889 403.5,37.5C 403.666,46.5062 403.5,55.5062 403,64.5C 400.08,71.2146 394.913,74.2146 387.5,73.5C 382.811,73.6594 378.478,72.4928 374.5,70C 375.64,67.5417 377.14,65.375 379,63.5C 382.985,65.3873 387.152,65.8873 391.5,65C 393.211,63.8668 393.711,62.3668 393,60.5C 384.843,64.3366 378.509,62.3366 374,54.5C 371.819,45.4771 374.985,39.4771 383.5,36.5 Z M 387.5,44.5 C 392.823,45.302 394.489,48.1354 392.5,53C 387.954,55.6186 384.954,54.4519 383.5,49.5C 384.127,47.2127 385.46,45.546 387.5,44.5 Z"/></g>
<g><path style="opacity:1" fill="#191919" d="M 432.5,37.5 C 432.345,40.8531 433.012,41.1864 434.5,38.5C 441.156,35.2209 446.656,36.5542 451,42.5C 451.5,49.4921 451.666,56.4921 451.5,63.5C 448.167,63.5 444.833,63.5 441.5,63.5C 441.666,57.8236 441.499,52.1569 441,46.5C 438.408,45.0183 436.075,45.3517 434,47.5C 433.501,52.8229 433.334,58.1563 433.5,63.5C 430.167,63.5 426.833,63.5 423.5,63.5C 423.5,54.8333 423.5,46.1667 423.5,37.5C 426.5,37.5 429.5,37.5 432.5,37.5 Z"/></g>
<g><path style="opacity:0.096" fill="#c1c1c1" d="M 432.5,37.5 C 433.167,37.8333 433.833,38.1667 434.5,38.5C 433.012,41.1864 432.345,40.8531 432.5,37.5 Z"/></g>
<g><path style="opacity:1" fill="#1a1a1a" d="M 483.5,47.5 C 483.5,49.1667 483.5,50.8333 483.5,52.5C 477.5,52.5 471.5,52.5 465.5,52.5C 465.263,53.791 465.596,54.791 466.5,55.5C 470.324,57.0302 473.99,56.6969 477.5,54.5C 478.855,55.1882 479.855,56.1882 480.5,57.5C 480.557,58.609 480.89,59.609 481.5,60.5C 475.305,65.2025 468.639,65.7025 461.5,62C 453.5,54.3333 453.5,46.6667 461.5,39C 469.216,35.1438 476.05,36.3105 482,42.5C 483.009,44.0249 483.509,45.6916 483.5,47.5 Z M 474.5,46.5 C 471.5,47.8333 468.5,47.8333 465.5,46.5C 468.5,43.8333 471.5,43.8333 474.5,46.5 Z"/></g>
<g><path style="opacity:1" fill="#222222" d="M 495.5,36.5 C 499.56,36.4847 503.56,36.9847 507.5,38C 508.428,38.3879 509.095,39.0546 509.5,40C 508.952,42.2701 507.786,44.1034 506,45.5C 502.497,44.277 498.997,44.277 495.5,45.5C 499.434,46.8545 503.434,48.0211 507.5,49C 510.886,52.3731 511.386,56.2064 509,60.5C 501.305,65.6504 493.472,65.8171 485.5,61C 486.289,58.6349 487.456,56.4682 489,54.5C 493.102,56.8295 497.268,57.3295 501.5,56C 497.275,54.5237 492.942,53.1904 488.5,52C 484.498,43.8435 486.831,38.6768 495.5,36.5 Z"/></g>
<g><path style="opacity:0.412" fill="#a7aeb2" d="M 41.5,25.5 C 45.2767,25.9337 48.61,27.267 51.5,29.5C 53.8984,29.2594 55.8984,29.9261 57.5,31.5C 56.5655,32.5676 56.2322,33.901 56.5,35.5C 55.6851,34.5707 54.8518,33.5707 54,32.5C 53.3971,35.6564 53.8971,38.6564 55.5,41.5C 54.7261,42.7112 53.8928,42.7112 53,41.5C 52.6667,38.8333 52.3333,36.1667 52,33.5C 50.7083,32.2089 49.5417,32.2089 48.5,33.5C 45.4569,31.4567 43.1236,28.7901 41.5,25.5 Z"/></g>
<g><path style="opacity:0.101" fill="#ffd9d9" d="M 228.5,38.5 C 226.167,38.5 223.833,38.5 221.5,38.5C 221.5,41.1667 221.5,43.8333 221.5,46.5C 223.833,46.5 226.167,46.5 228.5,46.5C 226.052,47.4731 223.385,47.8064 220.5,47.5C 220.5,44.1667 220.5,40.8333 220.5,37.5C 223.385,37.1936 226.052,37.5269 228.5,38.5 Z"/></g>
<g><path style="opacity:1" fill="#191919" d="M 408.5,37.5 C 411.833,37.5 415.167,37.5 418.5,37.5C 418.5,46.1667 418.5,54.8333 418.5,63.5C 415.167,63.5 411.833,63.5 408.5,63.5C 408.5,54.8333 408.5,46.1667 408.5,37.5 Z"/></g>
<g><path style="opacity:0.727" fill="#5c6971" d="M 139.5,32.5 C 139.232,35.1194 139.565,37.6194 140.5,40C 145.167,40.3333 149.833,40.6667 154.5,41C 142.502,41.1671 130.502,41.0004 118.5,40.5C 118.5,40.1667 118.5,39.8333 118.5,39.5C 124.176,39.6661 129.843,39.4994 135.5,39C 137.466,37.6534 137.799,36.1534 136.5,34.5C 134.833,33.5 133.5,32.1667 132.5,30.5C 132.735,29.9033 133.235,29.5699 134,29.5C 135.731,30.741 137.564,31.741 139.5,32.5 Z"/></g>
<g><path style="opacity:0.824" fill="#8d969b" d="M 205.5,41.5 C 202.833,42.8333 200.167,42.8333 197.5,41.5C 194.023,40.6773 190.356,40.1773 186.5,40C 189,39.8333 191.5,39.6667 194,39.5C 198.112,39.3489 201.946,40.0156 205.5,41.5 Z"/></g>
<g><path style="opacity:0.304" fill="#c0c4c7" d="M 98.5,22.5 C 86.8408,25.8926 75.5074,30.3926 64.5,36C 62.9632,37.1096 62.2965,38.6096 62.5,40.5C 81.1667,40.5 99.8333,40.5 118.5,40.5C 130.502,41.0004 142.502,41.1671 154.5,41C 149.833,40.6667 145.167,40.3333 140.5,40C 139.565,37.6194 139.232,35.1194 139.5,32.5C 141.074,34.1016 141.741,36.1016 141.5,38.5C 148.686,38.9389 155.686,38.9389 162.5,38.5C 164.008,40.1815 165.008,42.1815 165.5,44.5C 164.527,44.0133 163.527,43.5133 162.5,43C 146.077,42.5643 129.744,42.0643 113.5,41.5C 112.304,41.8457 112.304,42.3457 113.5,43C 119.197,45.6912 124.03,49.5246 128,54.5C 128.749,55.635 128.583,56.635 127.5,57.5C 124.57,56.5469 122.237,54.8802 120.5,52.5C 121.767,53.087 122.767,53.087 123.5,52.5C 120.018,47.4248 115.351,45.0915 109.5,45.5C 110.602,46.1757 111.602,46.8423 112.5,47.5C 111.209,47.2627 110.209,47.596 109.5,48.5C 107.833,47.1667 106.167,45.8333 104.5,44.5C 102.518,44.0046 100.518,43.5046 98.5,43C 85.1708,42.5001 71.8375,42.3334 58.5,42.5C 58.1218,40.079 57.4552,37.7457 56.5,35.5C 56.2322,33.901 56.5655,32.5676 57.5,31.5C 58.552,31.6495 59.552,31.4828 60.5,31C 63.0343,29.2664 64.5343,27.0997 65,24.5C 63.5028,26.6766 61.5028,28.01 59,28.5C 51.9173,26.5312 45.0839,24.1979 38.5,21.5C 39.6412,20.661 40.9745,19.9943 42.5,19.5C 48.7829,20.2941 55.1162,20.7941 61.5,21C 63.6079,21.3599 65.6079,22.0266 67.5,23C 68.5171,24.0495 68.6838,25.2161 68,26.5C 65.5289,30.5039 62.0289,32.5039 57.5,32.5C 57.4598,35.4245 58.2932,38.0912 60,40.5C 60.9832,38.5516 62.1498,36.7183 63.5,35C 74.3821,28.5553 86.0488,24.3887 98.5,22.5 Z M 52.5,25.5 C 54.6792,26.0592 56.8458,26.7259 59,27.5C 60.4341,27.0696 61.6008,26.2362 62.5,25C 58.9733,24.1925 55.6399,24.3592 52.5,25.5 Z M 104.5,41.5 C 106.205,42.0881 107.872,42.4214 109.5,42.5C 109,43.5 108.5,44.5 108,45.5C 106.373,44.4677 105.207,43.1344 104.5,41.5 Z"/></g>
<g><path style="opacity:0.173" fill="#c6c9cb" d="M 79.5,32.5 C 77.7274,33.8923 75.7274,35.059 73.5,36C 87.1322,37.3114 100.799,37.8114 114.5,37.5C 114.5,36.1667 114.5,34.8333 114.5,33.5C 114.833,33.5 115.167,33.5 115.5,33.5C 115.5,35.1667 115.5,36.8333 115.5,38.5C 99.8192,38.8327 84.1525,38.4994 68.5,37.5C 71.5244,34.4889 75.191,32.8222 79.5,32.5 Z"/></g>
<g><path style="opacity:0.506" fill="#919191" d="M 320.5,37.5 C 320.5,39.1667 320.5,40.8333 320.5,42.5C 325.363,42.1805 330.03,42.5139 334.5,43.5C 329.5,43.5 324.5,43.5 319.5,43.5C 319.205,41.2646 319.539,39.2646 320.5,37.5 Z"/></g>
<g><path style="opacity:1" fill="#2f414b" d="M 48.5,33.5 C 49.5417,32.2089 50.7083,32.2089 52,33.5C 52.3333,36.1667 52.6667,38.8333 53,41.5C 53.8928,42.7112 54.7261,42.7112 55.5,41.5C 53.8971,38.6564 53.3971,35.6564 54,32.5C 54.8518,33.5707 55.6851,34.5707 56.5,35.5C 57.4552,37.7457 58.1218,40.079 58.5,42.5C 71.8375,42.3334 85.1708,42.5001 98.5,43C 100.518,43.5046 102.518,44.0046 104.5,44.5C 104.414,45.4959 104.748,46.3292 105.5,47C 103.5,46.2075 101.5,46.3741 99.5,47.5C 98.7101,46.2058 97.7101,45.0391 96.5,44C 86.6578,43.1754 76.9911,43.342 67.5,44.5C 62.456,44.1725 57.456,44.5059 52.5,45.5C 50.2621,46.8527 48.9287,48.8527 48.5,51.5C 47.675,52.3857 46.675,52.719 45.5,52.5C 44.2056,50.32 44.5389,48.32 46.5,46.5C 49.3552,44.299 50.6885,41.299 50.5,37.5C 50.4146,35.6672 49.7479,34.3339 48.5,33.5 Z"/></g>
<g><path style="opacity:0.431" fill="#979fa4" d="M 67.5,44.5 C 76.9911,43.342 86.6578,43.1754 96.5,44C 97.7101,45.0391 98.7101,46.2058 99.5,47.5C 96.9455,48.388 94.2788,48.7214 91.5,48.5C 90.5,48.5 89.5,48.5 88.5,48.5C 88.5,48.1667 88.5,47.8333 88.5,47.5C 91.2469,47.8134 93.9135,47.48 96.5,46.5C 94.8333,46.1667 93.1667,45.8333 91.5,45.5C 86.1869,46.1952 80.8536,46.5285 75.5,46.5C 73.8333,46.5 72.1667,46.5 70.5,46.5C 75.3165,45.6739 80.3165,45.1739 85.5,45C 79.5092,44.5005 73.5092,44.3338 67.5,44.5 Z"/></g>
<g><path style="opacity:0.298" fill="#bbc0c3" d="M 48.5,33.5 C 49.7479,34.3339 50.4146,35.6672 50.5,37.5C 50.6885,41.299 49.3552,44.299 46.5,46.5C 48.9436,42.4046 49.6103,38.0713 48.5,33.5 Z"/></g>
<g><path style="opacity:1" fill="#5b6870" d="M 104.5,44.5 C 106.167,45.8333 107.833,47.1667 109.5,48.5C 109.025,51.3126 110.025,53.3126 112.5,54.5C 112.649,55.552 112.483,56.552 112,57.5C 111.329,56.7476 110.496,56.4142 109.5,56.5C 105.544,54.2119 102.211,51.2119 99.5,47.5C 101.5,46.3741 103.5,46.2075 105.5,47C 104.748,46.3292 104.414,45.4959 104.5,44.5 Z"/></g>
<g><path style="opacity:1" fill="#192c37" d="M 88.5,47.5 C 83.9677,47.8182 79.6344,47.4849 75.5,46.5C 80.8536,46.5285 86.1869,46.1952 91.5,45.5C 93.1667,45.8333 94.8333,46.1667 96.5,46.5C 93.9135,47.48 91.2469,47.8134 88.5,47.5 Z"/></g>
<g><path style="opacity:0.844" fill="#55636b" d="M 59.5,47.5 C 62.9619,46.5184 66.6286,46.185 70.5,46.5C 72.1667,46.5 73.8333,46.5 75.5,46.5C 79.6344,47.4849 83.9677,47.8182 88.5,47.5C 88.5,47.8333 88.5,48.1667 88.5,48.5C 78.8174,48.5325 69.1507,48.1992 59.5,47.5 Z"/></g>
<g><path style="opacity:0.377" fill="#ffa3a2" d="M 254.5,46.5 C 257.287,47.4767 260.287,47.81 263.5,47.5C 260.313,48.8056 256.98,48.8056 253.5,47.5C 253.624,46.8933 253.957,46.56 254.5,46.5 Z"/></g>
<g><path style="opacity:0.367" fill="#949494" d="M 465.5,46.5 C 468.5,47.8333 471.5,47.8333 474.5,46.5C 475.043,46.56 475.376,46.8933 475.5,47.5C 471.833,48.8333 468.167,48.8333 464.5,47.5C 464.624,46.8933 464.957,46.56 465.5,46.5 Z"/></g>
<g><path style="opacity:1" fill="#5d6a72" d="M 120.5,52.5 C 117.797,50.8193 115.131,49.1526 112.5,47.5C 111.602,46.8423 110.602,46.1757 109.5,45.5C 115.351,45.0915 120.018,47.4248 123.5,52.5C 122.767,53.087 121.767,53.087 120.5,52.5 Z"/></g>
<g><path style="opacity:0.153" fill="#d1d3d5" d="M 109.5,48.5 C 111.008,50.1815 112.008,52.1815 112.5,54.5C 110.025,53.3126 109.025,51.3126 109.5,48.5 Z"/></g>
<g><path style="opacity:0.386" fill="#ff9d9d" d="M 272.5,52.5 C 266.5,53.1667 260.5,53.8333 254.5,54.5C 253.957,54.44 253.624,54.1067 253.5,53.5C 259.798,52.5037 266.132,52.1703 272.5,52.5 Z"/></g>
<g><path style="opacity:0.37" fill="#a4a4a4" d="M 483.5,47.5 C 484.461,49.2646 484.795,51.2646 484.5,53.5C 478.074,52.88 472.074,53.5467 466.5,55.5C 465.596,54.791 465.263,53.791 465.5,52.5C 471.5,52.5 477.5,52.5 483.5,52.5C 483.5,50.8333 483.5,49.1667 483.5,47.5 Z"/></g>
<g><path style="opacity:0.098" fill="#ffdcdc" d="M 225.5,55.5 C 224.167,55.5 222.833,55.5 221.5,55.5C 221.806,58.3854 221.473,61.0521 220.5,63.5C 220.5,60.5 220.5,57.5 220.5,54.5C 222.415,54.2155 224.081,54.5489 225.5,55.5 Z"/></g>
<g><path style="opacity:0.244" fill="#9b9b9b" d="M 334.5,49.5 C 330.03,50.4861 325.363,50.8195 320.5,50.5C 320.5,52.1667 320.5,53.8333 320.5,55.5C 326.167,55.5 331.833,55.5 337.5,55.5C 337.806,58.3854 337.473,61.0521 336.5,63.5C 336.5,61.1667 336.5,58.8333 336.5,56.5C 330.833,56.5 325.167,56.5 319.5,56.5C 319.5,54.1667 319.5,51.8333 319.5,49.5C 324.5,49.5 329.5,49.5 334.5,49.5 Z"/></g>
<g><path style="opacity:0.066" fill="#d8d9db" d="M 67.5,44.5 C 73.5092,44.3338 79.5092,44.5005 85.5,45C 80.3165,45.1739 75.3165,45.6739 70.5,46.5C 66.6286,46.185 62.9619,46.5184 59.5,47.5C 69.1507,48.1992 78.8174,48.5325 88.5,48.5C 89.5,48.5 90.5,48.5 91.5,48.5C 85.3554,49.4902 79.0221,49.8235 72.5,49.5C 72.5,53.1667 72.5,56.8333 72.5,60.5C 71.834,57.6417 71.1674,54.6417 70.5,51.5C 69.016,52.4669 68.016,53.8002 67.5,55.5C 54.8899,54.471 42.2232,54.6377 29.5,56C 29.1667,56.3333 28.8333,56.6667 28.5,57C 34.8246,57.4995 41.1579,57.6662 47.5,57.5C 47.8333,57.5 48.1667,57.5 48.5,57.5C 45.1091,59.1254 41.4425,60.1254 37.5,60.5C 41.9819,61.3255 46.6486,61.8255 51.5,62C 52.5,63 53.5,64 54.5,65C 48.1263,65.3107 41.793,65.9774 35.5,67C 43.5,67.3333 51.5,67.6667 59.5,68C 60.056,68.3826 60.3893,68.8826 60.5,69.5C 48.7917,69.1252 37.125,68.2919 25.5,67C 26.3279,66.0853 27.3279,65.4186 28.5,65C 33.5,64.6667 38.5,64.3333 43.5,64C 37.2799,63.0843 31.2799,62.251 25.5,61.5C 28.2198,59.8893 31.2198,59.056 34.5,59C 28.7835,58.7182 23.1169,58.0516 17.5,57C 18.1667,56.3333 18.8333,55.6667 19.5,55C 28.3975,54.9622 37.0641,54.1289 45.5,52.5C 46.675,52.719 47.675,52.3857 48.5,51.5C 48.9287,48.8527 50.2621,46.8527 52.5,45.5C 57.456,44.5059 62.456,44.1725 67.5,44.5 Z M 59.5,47.5 C 62.7577,48.1708 66.0911,49.0042 69.5,50C 68.6433,50.6891 67.9767,51.5224 67.5,52.5C 61.5276,53.6636 55.5276,53.8303 49.5,53C 50.8824,48.017 54.2158,46.1837 59.5,47.5 Z"/></g>
<g><path style="opacity:0.761" fill="#747f86" d="M 67.5,55.5 C 67.5,56.1667 67.5,56.8333 67.5,57.5C 66.8333,57.5 66.1667,57.5 65.5,57.5C 62.7425,56.1818 59.5758,55.5152 56,55.5C 52.8333,55.6667 49.6667,55.8333 46.5,56C 47.056,56.3826 47.3893,56.8826 47.5,57.5C 41.1579,57.6662 34.8246,57.4995 28.5,57C 28.8333,56.6667 29.1667,56.3333 29.5,56C 42.2232,54.6377 54.8899,54.471 67.5,55.5 Z"/></g>
<g><path style="opacity:0.984" fill="#253942" d="M 65.5,57.5 C 60.8333,57.5 56.1667,57.5 51.5,57.5C 50.5,57.5 49.5,57.5 48.5,57.5C 48.1667,57.5 47.8333,57.5 47.5,57.5C 47.3893,56.8826 47.056,56.3826 46.5,56C 49.6667,55.8333 52.8333,55.6667 56,55.5C 59.5758,55.5152 62.7425,56.1818 65.5,57.5 Z"/></g>
<g><path style="opacity:0.209" fill="#d1d3d5" d="M 51.5,57.5 C 56.1667,57.5 60.8333,57.5 65.5,57.5C 66.1667,57.5 66.8333,57.5 67.5,57.5C 67.5,58.1667 67.5,58.8333 67.5,59.5C 61.7291,60.1128 56.3958,59.4461 51.5,57.5 Z"/></g>
<g><path style="opacity:1" fill="#2a3a44" d="M 72.5,60.5 C 75.4427,69.141 81.4427,72.3076 90.5,70C 93.1959,69.2352 95.6959,68.0685 98,66.5C 98.6667,67.5 98.6667,68.5 98,69.5C 95.648,71.0303 93.4813,72.6969 91.5,74.5C 88.2139,75.2071 84.8806,75.5405 81.5,75.5C 80.0413,75.5674 78.7079,75.2341 77.5,74.5C 77.0269,73.0937 76.0269,72.427 74.5,72.5C 73.5084,72.6716 72.8417,72.3382 72.5,71.5C 70.3657,66.5921 69.0324,66.5921 68.5,71.5C 67.5,71.5 66.5,71.5 65.5,71.5C 63.4471,71.5979 61.7804,70.9313 60.5,69.5C 60.3893,68.8826 60.056,68.3826 59.5,68C 51.5,67.6667 43.5,67.3333 35.5,67C 41.793,65.9774 48.1263,65.3107 54.5,65C 53.5,64 52.5,63 51.5,62C 46.6486,61.8255 41.9819,61.3255 37.5,60.5C 47.6806,60.8274 57.6806,60.494 67.5,59.5C 67.5,58.8333 67.5,58.1667 67.5,57.5C 67.5,56.8333 67.5,56.1667 67.5,55.5C 68.016,53.8002 69.016,52.4669 70.5,51.5C 71.1674,54.6417 71.834,57.6417 72.5,60.5 Z"/></g>
<g><path style="opacity:1" fill="#8b949a" d="M 112.5,54.5 C 115.455,56.1223 118.122,58.1223 120.5,60.5C 121.6,61.6049 122.267,62.9382 122.5,64.5C 121.833,64.5 121.167,64.5 120.5,64.5C 116.268,62.5998 112.601,59.9331 109.5,56.5C 110.496,56.4142 111.329,56.7476 112,57.5C 112.483,56.552 112.649,55.552 112.5,54.5 Z"/></g>
<g><path style="opacity:0.488" fill="#9aa2a6" d="M 48.5,57.5 C 49.5,57.5 50.5,57.5 51.5,57.5C 56.3958,59.4461 61.7291,60.1128 67.5,59.5C 57.6806,60.494 47.6806,60.8274 37.5,60.5C 41.4425,60.1254 45.1091,59.1254 48.5,57.5 Z"/></g>
<g><path style="opacity:0.298" fill="#a4a4a4" d="M 480.5,57.5 C 482.382,58.221 482.715,59.221 481.5,60.5C 480.89,59.609 480.557,58.609 480.5,57.5 Z"/></g>
<g><path style="opacity:1" fill="#33454e" d="M 176.5,61.5 C 176.923,63.7812 176.256,65.4479 174.5,66.5C 174.785,63.1709 174.118,60.1709 172.5,57.5C 172.5,57.1667 172.5,56.8333 172.5,56.5C 172.639,54.663 173.306,54.3296 174.5,55.5C 175.747,57.323 176.414,59.323 176.5,61.5 Z"/></g>
<g><path style="opacity:0.2" fill="#cdcfd2" d="M 56.5,63.5 C 60.0187,62.1923 63.6853,62.1923 67.5,63.5C 63.7897,64.7582 60.123,64.7582 56.5,63.5 Z"/></g>
<g><path style="opacity:0.278" fill="#cbced0" d="M 172.5,57.5 C 174.118,60.1709 174.785,63.1709 174.5,66.5C 157.12,66.7136 139.787,66.047 122.5,64.5C 122.267,62.9382 121.6,61.6049 120.5,60.5C 122.255,61.0722 123.922,61.9055 125.5,63C 141.473,64.277 157.473,64.777 173.5,64.5C 173.007,62.1944 172.674,59.861 172.5,57.5 Z"/></g>
<g><path style="opacity:0.286" fill="#b7bbbf" d="M 72.5,71.5 C 70.0213,72.6227 67.688,72.6227 65.5,71.5C 66.5,71.5 67.5,71.5 68.5,71.5C 69.0324,66.5921 70.3657,66.5921 72.5,71.5 Z"/></g>
<g><path style="opacity:1" fill="#21323c" d="M 195.5,66.5 C 196.74,68.9877 198.74,70.8211 201.5,72C 204.833,72.6667 208.167,72.6667 211.5,72C 214.601,69.6492 217.934,69.1492 221.5,70.5C 216.071,76.544 209.404,78.544 201.5,76.5C 199.847,76.3404 198.514,75.6737 197.5,74.5C 194.414,71.7382 192.08,68.4049 190.5,64.5C 190.833,64.1667 191.167,63.8333 191.5,63.5C 192.852,64.5244 194.185,65.5244 195.5,66.5 Z"/></g>
<g><path style="opacity:0.306" fill="#cccfd1" d="M 161.5,25.5 C 169.525,28.0125 176.858,31.8458 183.5,37C 190.843,37.5564 198.177,38.2231 205.5,39C 206.774,39.9772 206.774,40.8106 205.5,41.5C 201.946,40.0156 198.112,39.3489 194,39.5C 191.5,39.6667 189,39.8333 186.5,40C 190.356,40.1773 194.023,40.6773 197.5,41.5C 192.786,41.1734 188.12,41.5067 183.5,42.5C 180.074,44.6007 176.407,46.434 172.5,48C 175.798,53.0955 178.131,58.5955 179.5,64.5C 182.758,65.4173 186.091,65.7507 189.5,65.5C 189.222,63.6536 189.889,62.3202 191.5,61.5C 193.611,62.6046 194.945,64.2712 195.5,66.5C 194.185,65.5244 192.852,64.5244 191.5,63.5C 191.167,63.8333 190.833,64.1667 190.5,64.5C 192.08,68.4049 194.414,71.7382 197.5,74.5C 195.629,74.1412 194.129,73.1412 193,71.5C 192.517,72.448 192.351,73.448 192.5,74.5C 161.508,73.0395 130.508,72.0395 99.5,71.5C 96.7963,72.5722 94.1296,73.5722 91.5,74.5C 93.4813,72.6969 95.648,71.0303 98,69.5C 98.6667,68.5 98.6667,67.5 98,66.5C 95.6959,68.0685 93.1959,69.2352 90.5,70C 81.4427,72.3076 75.4427,69.141 72.5,60.5C 80.1818,71.1395 89.0152,72.1395 99,63.5C 100.158,63.9981 100.991,64.8315 101.5,66C 100.813,67.1618 100.647,68.3284 101,69.5C 102.945,68.1367 105.112,67.3034 107.5,67C 112.167,66.6667 116.833,66.3333 121.5,66C 120.944,65.6174 120.611,65.1174 120.5,64.5C 121.167,64.5 121.833,64.5 122.5,64.5C 122.611,65.1174 122.944,65.6174 123.5,66C 125.473,66.4955 127.473,66.6621 129.5,66.5C 122.679,67.3285 115.679,67.8285 108.5,68C 107.167,68.6667 107.167,69.3333 108.5,70C 107.5,70.3333 106.5,70.6667 105.5,71C 113.827,71.4997 122.16,71.6664 130.5,71.5C 134.833,71.5 139.167,71.5 143.5,71.5C 159.176,71.4795 174.843,71.8128 190.5,72.5C 190.5,70.8333 190.5,69.1667 190.5,67.5C 186.167,67.5 181.833,67.5 177.5,67.5C 177.795,65.2646 177.461,63.2646 176.5,61.5C 176.414,59.323 175.747,57.323 174.5,55.5C 173.306,54.3296 172.639,54.663 172.5,56.5C 170.595,53.6963 168.929,50.6963 167.5,47.5C 172.669,45.8888 177.669,43.8888 182.5,41.5C 181.833,41.1667 181.167,40.8333 180.5,40.5C 176.494,42.0576 172.494,43.3909 168.5,44.5C 167.447,41.3929 166.114,38.3929 164.5,35.5C 166.391,37.4419 168.391,39.2752 170.5,41C 173.817,41.9772 176.484,41.1438 178.5,38.5C 179.675,38.719 180.675,38.3857 181.5,37.5C 175.803,33.6508 169.803,30.3175 163.5,27.5C 162.833,26.8333 162.167,26.1667 161.5,25.5 Z"/></g>
<g><path style="opacity:1" fill="#2a3c46" d="M 177.5,67.5 C 181.833,67.5 186.167,67.5 190.5,67.5C 190.5,69.1667 190.5,70.8333 190.5,72.5C 174.843,71.8128 159.176,71.4795 143.5,71.5C 139.946,70.7513 136.28,69.918 132.5,69C 147.484,67.9878 162.484,67.4878 177.5,67.5 Z"/></g>
<g><path style="opacity:1" fill="#647178" d="M 176.5,61.5 C 177.461,63.2646 177.795,65.2646 177.5,67.5C 162.484,67.4878 147.484,67.9878 132.5,69C 136.28,69.918 139.946,70.7513 143.5,71.5C 139.167,71.5 134.833,71.5 130.5,71.5C 130.389,70.8826 130.056,70.3826 129.5,70C 127.5,69.6667 125.5,69.3333 123.5,69C 128.511,68.4153 133.511,67.7486 138.5,67C 135.518,66.502 132.518,66.3354 129.5,66.5C 127.473,66.6621 125.473,66.4955 123.5,66C 122.944,65.6174 122.611,65.1174 122.5,64.5C 139.787,66.047 157.12,66.7136 174.5,66.5C 176.256,65.4479 176.923,63.7812 176.5,61.5 Z"/></g>
<g><path style="opacity:0.88" fill="#91999e" d="M 129.5,66.5 C 132.518,66.3354 135.518,66.502 138.5,67C 133.511,67.7486 128.511,68.4153 123.5,69C 125.5,69.3333 127.5,69.6667 129.5,70C 130.056,70.3826 130.389,70.8826 130.5,71.5C 122.16,71.6664 113.827,71.4997 105.5,71C 106.5,70.6667 107.5,70.3333 108.5,70C 107.167,69.3333 107.167,68.6667 108.5,68C 115.679,67.8285 122.679,67.3285 129.5,66.5 Z"/></g>
<g><path style="opacity:0.271" fill="#b6b8bb" d="M 74.5,72.5 C 76.0269,72.427 77.0269,73.0937 77.5,74.5C 75.9731,74.573 74.9731,73.9063 74.5,72.5 Z"/></g>
<g><path style="opacity:0.042" fill="#d5d7d9" d="M 91.5,74.5 C 91.0825,75.2216 90.4158,75.7216 89.5,76C 123.326,75.1468 156.993,75.6468 190.5,77.5C 188.833,77.5 187.167,77.5 185.5,77.5C 158.167,77.5 130.833,77.5 103.5,77.5C 101.331,76.9182 98.998,76.9182 96.5,77.5C 88.1667,77.5 79.8333,77.5 71.5,77.5C 69.4727,77.6621 67.4727,77.4955 65.5,77C 71.0158,76.8267 76.3491,76.3267 81.5,75.5C 84.8806,75.5405 88.2139,75.2071 91.5,74.5 Z"/></g>
<g><path style="opacity:0.086" fill="#c1c4c7" d="M 195.5,66.5 C 198.763,68.9632 202.429,70.6298 206.5,71.5C 210.776,70.1918 215.109,69.1918 219.5,68.5C 222.833,68.5749 225.5,69.2416 227.5,70.5C 234.836,69.7819 242.169,69.1153 249.5,68.5C 249.703,70.3904 249.037,71.8904 247.5,73C 240.028,74.4705 232.694,74.6372 225.5,73.5C 223.801,73.3398 222.134,73.5065 220.5,74C 218.112,75.8605 215.446,77.1939 212.5,78C 214.708,78.1909 216.708,78.6909 218.5,79.5C 213.833,79.5 209.167,79.5 204.5,79.5C 198.167,78.8333 191.833,78.1667 185.5,77.5C 187.167,77.5 188.833,77.5 190.5,77.5C 194.371,77.815 198.038,77.4816 201.5,76.5C 209.404,78.544 216.071,76.544 221.5,70.5C 217.934,69.1492 214.601,69.6492 211.5,72C 208.167,72.6667 204.833,72.6667 201.5,72C 198.74,70.8211 196.74,68.9877 195.5,66.5 Z"/></g>
<g><path style="opacity:0.508" fill="#7b858c" d="M 225.5,73.5 C 225.611,72.8826 225.944,72.3826 226.5,72C 233.309,71.9935 239.976,71.1602 246.5,69.5C 246.833,69.8333 247.167,70.1667 247.5,70.5C 244.78,72.1107 241.78,72.944 238.5,73C 234.179,73.499 229.846,73.6657 225.5,73.5 Z"/></g>
<g><path style="opacity:0.32" fill="#c6cacd" d="M 57.5,79.5 C 52.8333,79.5 48.1667,79.5 43.5,79.5C 43.0825,78.7784 42.4158,78.2784 41.5,78C 41.8333,77.6667 42.1667,77.3333 42.5,77C 48.1667,76.3333 53.8333,76.3333 59.5,77C 58.6195,77.7083 57.9528,78.5416 57.5,79.5 Z"/></g>
<g><path style="opacity:1" fill="#46565e" d="M 103.5,77.5 C 130.833,77.5 158.167,77.5 185.5,77.5C 191.833,78.1667 198.167,78.8333 204.5,79.5C 171.167,79.5 137.833,79.5 104.5,79.5C 104.167,78.8333 103.833,78.1667 103.5,77.5 Z"/></g>
<g><path style="opacity:0.213" fill="#9ca2a7" d="M 71.5,77.5 C 79.8333,77.5 88.1667,77.5 96.5,77.5C 95.8333,78.1667 95.1667,78.8333 94.5,79.5C 89.1667,79.5 83.8333,79.5 78.5,79.5C 76.1667,78.8333 73.8333,78.1667 71.5,77.5 Z"/></g>
</svg>
